<?xml version="1.0" encoding="utf-8"?>
<!-- Generator: Adobe Illustrator 17.1.0, SVG Export Plug-In . SVG Version: 6.00 Build 0)  -->
<!DOCTYPE svg PUBLIC "-//W3C//DTD SVG 1.1//EN" "http://www.w3.org/Graphics/SVG/1.1/DTD/svg11.dtd">
<svg version="1.1" id="Layer_1" xmlns="http://www.w3.org/2000/svg" xmlns:xlink="http://www.w3.org/1999/xlink" x="0px" y="0px"
	 viewBox="0 0 33 36" enable-background="new 0 0 33 36" xml:space="preserve">
<g>
	<polygon fill="none" points="18.8,18 24.3,12.5 24.3,12.5 18.8,18 1.3,0.5 1.3,0.5 18.8,18 1.3,35.5 1.3,35.5 18.8,18 24.3,23.5 
		24.3,23.5 	"/>
	
		<linearGradient id="SVGID_1_" gradientUnits="userSpaceOnUse" x1="476.7474" y1="-524.1187" x2="453.671" y2="-538.5609" gradientTransform="matrix(0.7071 0.7071 -0.7071 0.7071 -692.5698 50.0683)">
		<stop  offset="0" style="stop-color:#D6FFA1"/>
		<stop  offset="0.3264" style="stop-color:#93E2A7"/>
		<stop  offset="1" style="stop-color:#00A3B5"/>
	</linearGradient>
	<path fill="url(#SVGID_1_)" d="M24.3,12.5L3,0.8C2.4,0.4,1.8,0.4,1.3,0.5L18.8,18L24.3,12.5z"/>
	
		<linearGradient id="SVGID_2_" gradientUnits="userSpaceOnUse" x1="463.3304" y1="-536.4557" x2="493.2499" y2="-528.6343" gradientTransform="matrix(0.7071 0.7071 -0.7071 0.7071 -692.5698 50.0683)">
		<stop  offset="0" style="stop-color:#FF177B"/>
		<stop  offset="0.6721" style="stop-color:#FFA976"/>
		<stop  offset="1" style="stop-color:#FFEC73"/>
	</linearGradient>
	<path fill="url(#SVGID_2_)" d="M24.3,23.5l7.3-4c1.5-0.8,1.5-2.1,0-3l-7.3-4L18.8,18L24.3,23.5z"/>
	
		<linearGradient id="SVGID_3_" gradientUnits="userSpaceOnUse" x1="480.0331" y1="-513.1639" x2="447.5891" y2="-532.252" gradientTransform="matrix(0.7071 0.7071 -0.7071 0.7071 -692.5698 50.0683)">
		<stop  offset="0" style="stop-color:#63FFD4"/>
		<stop  offset="0.4854" style="stop-color:#32A0BA"/>
		<stop  offset="0.8349" style="stop-color:#1262A9"/>
		<stop  offset="1" style="stop-color:#064AA2"/>
	</linearGradient>
	<path fill="url(#SVGID_3_)" d="M1.3,0.5C0.7,0.7,0.3,1.4,0.3,2.4l0,31.3c0,1,0.4,1.6,1,1.8L18.8,18L1.3,0.5z"/>
	
		<linearGradient id="SVGID_4_" gradientUnits="userSpaceOnUse" x1="491.8122" y1="-528.3195" x2="471.8357" y2="-502.0014" gradientTransform="matrix(0.7071 0.7071 -0.7071 0.7071 -692.5698 50.0683)">
		<stop  offset="0" style="stop-color:#FF4521"/>
		<stop  offset="0.3411" style="stop-color:#D43E65"/>
		<stop  offset="0.7935" style="stop-color:#9F36B9"/>
		<stop  offset="1" style="stop-color:#8A33DB"/>
	</linearGradient>
	<path fill="url(#SVGID_4_)" d="M1.3,35.5c0.5,0.2,1,0.1,1.6-0.3l21.4-11.7L18.8,18L1.3,35.5z"/>
</g>
</svg>
