<?xml version="1.0" encoding="utf-8"?>
<!-- Generator: Adobe Illustrator 17.1.0, SVG Export Plug-In . SVG Version: 6.00 Build 0)  -->
<!DOCTYPE svg PUBLIC "-//W3C//DTD SVG 1.1//EN" "http://www.w3.org/Graphics/SVG/1.1/DTD/svg11.dtd">
<svg version="1.1" id="Layer_1" xmlns="http://www.w3.org/2000/svg" xmlns:xlink="http://www.w3.org/1999/xlink" x="0px" y="0px"
	 viewBox="0 0 330 56" enable-background="new 0 0 330 56" xml:space="preserve">
<path id="Wordmark_1_" fill="#0099CC" d="M0,1v54h8V34h6c6.6,0,12-5.4,12-12v-9c0-6.6-5.4-12-12-12H0z M14,26H8V9h6c2.2,0,4,1.8,4,4
	v9C18,24.2,16.2,26,14,26z M60,55l-5.8-24.2c2.4-2.2,3.8-5.3,3.8-8.8v-9c0-6.6-5.4-12-12-12H32v54h8V34h5.9L51,55H60z M40,26V9h6
	c2.2,0,4,1.8,4,4v9c0,2.2-1.8,4-4,4H40z M72,9v17h12v8H72v13h16v8H67l-3-12.4V1h24v8H72z M118,41v2.2c0,7.1-5.8,12.9-12.9,12.9h-0.3
	C97.8,56,92,50.2,92,43.1V43l8-1v1c0,2.7,2.2,5,5,5h0.1c2.7,0,4.9-2.2,4.9-4.9V41c0-2.1-0.8-4.2-2.3-5.7l-11-11
	c-3-3-4.7-7.1-4.7-11.3l0-0.2C92,5.8,97.8,0,104.8,0h0.3c7.1,0,12.9,5.8,12.9,12.9V13l-8,1v-1c0-2.7-2.2-5-5-5h-0.1
	c-2.7,0-4.9,2.2-4.9,4.9V13c0,2.1,0.8,4.2,2.3,5.7l11,11C116.3,32.7,118,36.7,118,41z M148,41v2.2c0,7.1-5.8,12.9-12.9,12.9h-0.3
	c-7.1,0-12.9-5.8-12.9-12.9V43l8-1v1c0,2.7,2.2,5,5,5h0.1c2.7,0,4.9-2.2,4.9-4.9V41c0-2.1-0.8-4.2-2.3-5.7l-11-11
	c-3-3-4.7-7.1-4.7-11.3l0-0.2C122,5.8,127.8,0,134.8,0h0.3c7.1,0,12.9,5.8,12.9,12.9V13l-8,1v-1c0-2.7-2.2-5-5-5h-0.1
	c-2.7,0-4.9,2.2-4.9,4.9V13c0,2.1,0.8,4.2,2.3,5.7l11,11C146.3,32.7,148,36.7,148,41z M212,55l-5.8-24.2c2.4-2.2,3.8-5.3,3.8-8.8v-9
	c0-6.6-5.4-12-12-12h-14v54h8V34h5.9l5.1,21H212z M192,26V9h6c2.2,0,4,1.8,4,4v9c0,2.2-1.8,4-4,4H192z M224,9v17h12v8h-12v13h16v8
	h-21l-3-12.4V1h24v8H224z M178,1v42.1c0,7.1-5.8,12.9-12.9,12.9h-0.3c-7.1,0-12.9-5.8-12.9-12.9V1h8v42c0,2.7,2.2,5,4.9,5h0.1
	c2.7,0,4.9-2.2,4.9-5V1H178z M272,1v54h-8.2L254,25.6V55h-8V1h8.2l9.8,29.4V1H272z M330,9h-10v46h-8V9h-26v17h12v8h-12v13h16v8h-24
	V1h52V9z"/>
</svg>
